<svg width="30" height="30" viewBox="0 0 30 30" fill="none" xmlns="http://www.w3.org/2000/svg">
<path d="M14.9999 18.6667L13.5857 20.081L14.9999 21.4952L16.4141 20.081L14.9999 18.6667ZM16.9999 2.16675C16.9999 1.06218 16.1045 0.166748 14.9999 0.166748C13.8954 0.166748 12.9999 1.06218 12.9999 2.16675L16.9999 2.16675ZM4.41904 10.9143L13.5857 20.081L16.4141 17.2525L7.24747 8.08587L4.41904 10.9143ZM16.4141 20.081L25.5808 10.9143L22.7524 8.08587L13.5857 17.2525L16.4141 20.081ZM16.9999 18.6667L16.9999 2.16675L12.9999 2.16675L12.9999 18.6667L16.9999 18.6667Z" fill="#FF0000"/>
<path d="M2.16675 22.3333L2.16675 24.1666C2.16675 26.1916 3.80837 27.8333 5.83341 27.8333L24.1667 27.8333C26.1918 27.8333 27.8334 26.1916 27.8334 24.1666V22.3333" stroke="#FF1212" stroke-width="4" stroke-linecap="round"/>
</svg>
