<svg width="30" height="30" viewBox="0 0 30 30" fill="none" xmlns="http://www.w3.org/2000/svg">
<path d="M29.2109 17.7891L26.6875 15.8766C26.7141 15.6109 26.7406 15.3188 26.7406 15C26.7406 14.6812 26.7141 14.3891 26.6875 14.1234L29.2109 12.2109C29.9016 11.6797 30.0875 10.75 29.6359 9.95312L26.8203 5.19844C26.5016 4.64062 25.8906 4.29531 25.2531 4.29531C25.0406 4.29531 24.8547 4.32188 24.6422 4.40156L21.6406 5.57031C21.1359 5.225 20.6047 4.93281 20.0734 4.69375L19.6219 1.63906C19.4891 0.7625 18.7453 0.125 17.8422 0.125H12.1578C11.2547 0.125 10.5109 0.7625 10.3781 1.6125L9.95313 4.69375C9.42188 4.93281 8.91719 5.225 8.38594 5.57031L5.38438 4.40156C5.17188 4.32188 4.95938 4.29531 4.74688 4.29531C4.10938 4.29531 3.49844 4.61406 3.20625 5.17188L0.364065 9.95312C-0.087497 10.6969 0.0984407 11.6797 0.789065 12.2109L3.3125 14.1234C3.28594 14.4422 3.25938 14.7344 3.25938 15C3.25938 15.2656 3.25938 15.5578 3.3125 15.8766L0.789065 17.7891C0.0984407 18.3203 -0.087497 19.25 0.364065 20.0469L3.17969 24.8016C3.49844 25.3594 4.10938 25.7047 4.74688 25.7047C4.95938 25.7047 5.14531 25.6781 5.35781 25.5984L8.35938 24.4297C8.86406 24.775 9.39531 25.0672 9.92656 25.3063L10.3781 28.3609C10.4844 29.2109 11.2547 29.875 12.1578 29.875H17.8422C18.7453 29.875 19.4891 29.2375 19.6219 28.3875L20.0734 25.3063C20.6047 25.0672 21.1094 24.775 21.6406 24.4297L24.6422 25.5984C24.8547 25.6781 25.0672 25.7047 25.2797 25.7047C25.9172 25.7047 26.5281 25.3859 26.8203 24.8281L29.6625 20.0203C30.0875 19.25 29.9016 18.3203 29.2109 17.7891ZM21.375 15C21.375 18.5063 18.5062 21.375 15 21.375C11.4938 21.375 8.625 18.5063 8.625 15C8.625 11.4937 11.4938 8.625 15 8.625C18.5062 8.625 21.375 11.4937 21.375 15Z" fill="#FFC8B6"/>
</svg>
