<svg width="34" height="34" viewBox="0 0 34 34" fill="none" xmlns="http://www.w3.org/2000/svg">
<path d="M14.7805 6.1389C14.6861 5.99723 14.6389 5.85557 14.6389 5.66668C14.6389 5.14723 15.0639 4.72223 15.5833 4.72223H18.4167C18.9361 4.72223 19.3611 5.14723 19.3611 5.66668C19.3611 5.85557 19.3139 5.99723 19.2194 6.1389H21.2028C21.25 5.99723 21.25 5.80834 21.25 5.66668C21.25 4.10834 19.975 2.83334 18.4167 2.83334H15.5833C14.025 2.83334 12.75 4.10834 12.75 5.66668C12.75 5.80834 12.7028 6.23335 12.75 6.37502L14.7805 6.1389ZM28.3333 24.3195C28.3333 22.7139 28.3333 22.8438 28.3333 21.25V14.9695C28.3333 10.1056 25.7833 6.1389 20.9194 6.1389H14.0722C9.1611 6.1389 5.66665 10.1056 5.66665 15.0167V21.25C5.66665 23.375 5.66666 22.7139 5.66666 24.3195C5.66666 25.925 5.61942 25.5472 5.66665 27.3889C5.71388 29.2306 7.22499 30.6945 9.06665 30.6945H24.9333C26.775 30.6945 28.2861 29.2306 28.3333 27.3889C28.3681 26.0313 28.3333 25.925 28.3333 24.3195Z" fill="#FFC8B6"/>
<path d="M10.3889 16.5278V18.9361C10.3889 19.975 10.7667 20.7778 11.7583 20.7778H21.7222C22.7611 20.7778 23.5639 19.9278 23.5639 18.9361V16.5278C23.5639 13.6472 21.7222 11.3333 18.8417 11.3333H15.0639C12.2306 11.3333 10.3889 13.6472 10.3889 16.5278Z" fill="white"/>
<path d="M23.1389 25.5H10.8611C10.3417 25.5 9.91666 25.075 9.91666 24.5556C9.91666 24.0361 10.3417 23.6111 10.8611 23.6111H23.1389C23.6583 23.6111 24.0833 24.0361 24.0833 24.5556C24.0833 25.075 23.6583 25.5 23.1389 25.5Z" fill="#FE6D40"/>
</svg>
