<svg width="28" height="28" viewBox="0 0 28 28" fill="none" xmlns="http://www.w3.org/2000/svg">
<path d="M13.864 0C6.20709 0 0 6.20709 0 13.864C0 21.5209 6.20712 27.728 13.864 27.728C21.521 27.728 27.728 21.5209 27.728 13.864C27.728 6.20706 21.521 0 13.864 0ZM14.7179 20.5206C14.439 20.7681 14.1172 20.8919 13.7524 20.8919C13.3748 20.8919 13.0453 20.7697 12.7636 20.5253C12.482 20.2808 12.3416 19.9388 12.3416 19.4994C12.3416 19.1095 12.4778 18.7814 12.7497 18.5153C13.0221 18.2492 13.3563 18.1161 13.7524 18.1161C14.1423 18.1161 14.4704 18.2492 14.7365 18.5153C15.0026 18.7814 15.1357 19.1095 15.1357 19.4994C15.1357 19.9326 14.9964 20.273 14.7179 20.5207L14.7179 20.5206ZM18.1855 11.9237C17.972 12.3198 17.7179 12.6625 17.4242 12.9496C17.1303 13.2374 16.6026 13.7217 15.8413 14.4025C15.6309 14.5944 15.4622 14.763 15.3353 14.9085C15.2085 15.0539 15.1141 15.187 15.0522 15.3077C14.9903 15.4284 14.9424 15.549 14.9083 15.6697C14.8742 15.7897 14.8232 16.0016 14.7551 16.3057C14.6375 16.9494 14.2696 17.2712 13.6503 17.2712C13.3281 17.2712 13.0577 17.1661 12.8379 16.9556C12.6179 16.7451 12.5084 16.4326 12.5084 16.018C12.5084 15.4981 12.5889 15.0478 12.7494 14.6671C12.9103 14.2864 13.1238 13.9522 13.39 13.6644C13.6561 13.3766 14.0151 13.0347 14.4669 12.6385C14.863 12.2919 15.1497 12.0305 15.326 11.854C15.5021 11.6777 15.6506 11.4812 15.7717 11.2645C15.8924 11.0478 15.9523 10.8135 15.9523 10.5589C15.9523 10.0638 15.7682 9.64597 15.3999 9.30552C15.0317 8.96585 14.5567 8.79564 13.9748 8.79564C13.294 8.79564 12.7927 8.96744 12.4712 9.3109C12.149 9.65442 11.8771 10.1596 11.6539 10.8289C11.443 11.5275 11.0438 11.8771 10.4559 11.8771C10.1093 11.8771 9.81718 11.755 9.57896 11.5105C9.34074 11.266 9.22193 11.0013 9.22231 10.7167C9.22231 10.1287 9.41071 9.53294 9.78868 8.92951C10.1658 8.32609 10.7167 7.82622 11.4408 7.43012C12.165 7.03402 13.0094 6.83602 13.9753 6.83602C14.8727 6.83602 15.6646 7.00153 16.352 7.33269C17.039 7.66377 17.5697 8.11404 17.9442 8.68353C18.3187 9.25288 18.5059 9.87183 18.5059 10.5403C18.506 11.0664 18.3992 11.5276 18.1856 11.9237L18.1855 11.9237Z" fill="#FFC8B6"/>
</svg>
