<svg width="30" height="27" viewBox="0 0 30 27" fill="none" xmlns="http://www.w3.org/2000/svg">
<path d="M27.975 26.5586H2.82467C2.82467 26.5586 0.821564 26.8704 0.821564 24.1981V2.59733C0.821564 2.59733 0.866101 0.192324 3.31434 0.192324H12.1281C12.1281 0.192324 13.1964 -0.0303611 14.0867 1.35028C14.9325 2.68643 15.4221 3.53264 15.4221 3.53264C15.4221 3.53264 15.7338 3.88892 16.446 3.88892C15.8228 3.88892 27.797 3.88892 27.797 3.88892C27.797 3.88892 29.8001 3.66623 29.8001 5.89309V24.3317C29.8001 24.3317 30.1117 26.5586 27.975 26.5586H27.975ZM26.1054 9.6343C26.1054 9.09984 25.6603 8.65446 25.1261 8.65446H5.54001C4.96132 8.65446 4.51619 9.09986 4.51619 9.6343V9.72336C4.51619 10.3024 4.96132 10.7477 5.54001 10.7477H25.1261C25.6603 10.7477 26.1054 10.3023 26.1054 9.72336V9.6343Z" fill="#FFC8B6"/>
</svg>
