<svg width="49" height="32" viewBox="0 0 49 32" fill="none" xmlns="http://www.w3.org/2000/svg">
<rect width="49" height="32" rx="4" fill="#FFEDE7"/>
<path d="M25 17.1471C24.7006 17.1471 24.4572 17.3904 24.4572 17.6898V19.2197C24.4572 19.5191 24.7006 19.7625 25 19.7625C25.2994 19.7625 25.5428 19.5191 25.5428 19.2197V17.6898C25.5428 17.3904 25.2994 17.1471 25 17.1471Z" fill="#AAAAAA"/>
<path d="M28.2552 14.1543V12.2553C28.2552 10.4602 26.7951 9 25 9C23.2049 9 21.7447 10.4602 21.7447 12.2553V14.1543C20.5334 14.6479 19.6761 15.8387 19.6761 17.2264V19.6846C19.6761 21.5125 21.1636 23 22.9916 23H27.007C28.8349 23 30.3224 21.5125 30.3224 19.6846V17.2264C30.3238 15.8387 29.4666 14.6479 28.2552 14.1543ZM22.8302 12.2553C22.8302 11.059 23.8037 10.0855 25 10.0855C26.1963 10.0855 27.1697 11.059 27.1697 12.2553V13.915C27.1164 13.9123 27.0617 13.9109 27.0084 13.9109H22.9916C22.9369 13.9109 22.8836 13.9123 22.8289 13.915V12.2553H22.8302ZM29.2383 19.6846C29.2383 20.915 28.2375 21.9158 27.007 21.9158H22.9916C21.7611 21.9158 20.7603 20.915 20.7603 19.6846V17.2264C20.7603 15.9959 21.7611 14.9951 22.9916 14.9951H27.007C28.2375 14.9951 29.2383 15.9959 29.2383 17.2264V19.6846Z" fill="#AAAAAA"/>
</svg>
