<svg width="76" height="32" viewBox="0 0 76 32" fill="none" xmlns="http://www.w3.org/2000/svg">
<rect width="76" height="32" rx="4" fill="#FE6D40"/>
<path d="M28.396 10.612V11.522H37.37V10.612H28.396ZM32.302 9.296V11.032H33.352V9.296H32.302ZM30.482 13.048H35.228V14.35H30.482V13.048ZM29.474 12.292V15.106H36.292V12.292H29.474ZM28.158 15.918V18.34H29.11V16.758H36.53V18.312H37.496V15.918H28.158ZM29.754 17.71V18.578H36.012V17.71H29.754ZM32.302 17.906V20.972C32.302 21.14 32.246 21.196 32.022 21.196C31.812 21.21 31.056 21.21 30.244 21.182C30.37 21.476 30.524 21.854 30.566 22.148C31.616 22.148 32.33 22.148 32.778 21.994C33.226 21.84 33.338 21.574 33.338 21V17.906H32.302ZM27.696 9.296C26.912 11.424 25.596 13.524 24.21 14.882C24.406 15.12 24.7 15.68 24.812 15.918C26.324 14.35 27.766 11.984 28.69 9.604L27.696 9.296ZM26.24 12.908V22.106H27.248V11.928L27.22 11.914L26.24 12.908ZM45.532 13.944V14.994H50.656V13.944H45.532ZM38.672 20.384V21.42H51.286V20.384H38.672ZM44.972 9.282V20.916H46.078V9.282H44.972ZM40.618 12.334V20.874H41.696V12.334H40.618Z" fill="white"/>
</svg>
