<svg width="32" height="32" viewBox="0 0 32 32" fill="none" xmlns="http://www.w3.org/2000/svg">
<path fill-rule="evenodd" clip-rule="evenodd" d="M7 3H9.5V4H7C5.34315 4 4 5.34315 4 7V8.57143H3V7C3 4.79086 4.79086 3 7 3ZM3 23.4286V25C3 27.2091 4.79086 29 7 29H9.5V28H7C5.34315 28 4 26.6569 4 25V23.4286H3ZM28 23.4286V25C28 26.6569 26.6569 28 25 28H22.5V29H25C27.2091 29 29 27.2091 29 25V23.4286H28ZM29 8.57143V7C29 4.79086 27.2091 3 25 3H22.5V4H25C26.6569 4 28 5.34315 28 7V8.57143H29Z" fill="#FE6D40"/>
<g clip-path="url(#clip0_6_5)">
<rect width="1" height="25" transform="translate(17.6777 1) rotate(45)" fill="#FE6D40"/>
<rect width="1" height="25" transform="translate(21.9203 5.24265) rotate(45)" fill="#FE6D40"/>
<rect width="1" height="25" transform="translate(26.1629 9.48528) rotate(45)" fill="#FE6D40"/>
<rect width="1" height="25" transform="translate(30.4056 13.7279) rotate(45)" fill="#FE6D40"/>
</g>
<defs>
<clipPath id="clip0_6_5">
<rect width="20" height="20" fill="white" transform="translate(6 6)"/>
</clipPath>
</defs>
</svg>
