<svg width="21" height="26" viewBox="0 0 21 26" fill="none" xmlns="http://www.w3.org/2000/svg">
<path d="M5.21579 15.6419C4.55176 14.7959 3.33417 14.6592 2.49625 15.3165C1.65489 15.9765 1.50601 17.1967 2.16915 18.0379C2.16935 18.0381 2.16956 18.0384 2.16976 18.0386L6.27215 23.2556C6.27269 23.2563 6.27322 23.257 6.27376 23.2577C6.64974 23.739 7.21726 24 7.79833 24C8.00899 24 8.22598 23.9653 8.43386 23.8926M8.43386 23.8926C8.4334 23.8927 8.43294 23.8929 8.43249 23.8931L8.10349 22.9487L8.43386 23.8926ZM15.6267 22.0625V9.53826L16.2714 10.3584C16.9343 11.2034 18.155 11.3432 18.9924 10.6834C19.8329 10.0231 19.9813 8.80333 19.3181 7.96251C19.318 7.96238 19.3179 7.96225 19.3178 7.96211L15.2139 2.74316C15.2136 2.74279 15.2133 2.74242 15.213 2.74204C14.7048 2.094 13.8372 1.83345 13.0532 2.10836C12.278 2.38017 11.7568 3.11223 11.7518 3.93209L11.7518 3.93209V3.93823V22.0625C11.7518 23.1324 12.6194 24 13.6892 24C14.7591 24 15.6267 23.1324 15.6267 22.0625Z" fill="#FE6D40" stroke="white" stroke-width="2"/>
</svg>
