<svg width="24" height="24" viewBox="0 0 24 24" fill="none" xmlns="http://www.w3.org/2000/svg">
<rect width="24" height="24" rx="12" fill="#FFC8B6"/>
<path d="M11.4133 17.8133C7.89331 17.8133 5.01331 14.9333 5.01331 11.4133C5.01331 7.89334 7.89331 5.01334 11.4133 5.01334C14.9333 5.01334 17.8133 7.89334 17.8133 11.4133C17.8133 14.9333 14.9333 17.8133 11.4133 17.8133ZM11.4133 16.7467C14.3466 16.7467 16.7466 14.3467 16.7466 11.4133C16.7466 8.48 14.3466 6.08 11.4133 6.08C8.47997 6.08 6.07997 8.48 6.07997 11.4133C6.07997 14.3467 8.47997 16.7467 11.4133 16.7467ZM15.36 17.6C15.1466 17.3867 15.2 17.0133 15.4133 16.8533C15.6266 16.6933 16 16.6933 16.16 16.9067L17.1733 18.1333C17.3866 18.3467 17.3333 18.72 17.12 18.88C16.9066 19.04 16.5333 19.04 16.3733 18.8267L15.36 17.6Z" fill="white"/>
</svg>
