<svg width="200" height="200" viewBox="0 0 200 200" fill="none" xmlns="http://www.w3.org/2000/svg">
<path d="M181.955 34.5414H89.7026L87.1032 25.9435C86.1035 22.5944 83.0292 20.2949 79.5301 20.2949H17.9955C13.6216 20.2949 10.0725 23.819 10.0725 28.193V171.732C10.0725 176.106 13.5966 179.655 17.9705 179.655H181.955C186.328 179.655 189.853 176.106 189.878 171.732V42.4394C189.878 38.0905 186.328 34.5414 181.955 34.5414Z" fill="#FFA000"/>
<path d="M169.508 169.808H30.4424C26.0685 169.808 22.5194 166.283 22.5194 161.91V54.5364C22.5194 50.1625 26.0435 46.6133 30.4174 46.6133H169.508C173.882 46.6133 177.431 50.1375 177.431 54.5114V161.91C177.431 166.283 173.882 169.833 169.508 169.808V169.808Z" fill="white"/>
<path d="M181.955 179.655H17.9955C13.6216 179.655 10.0725 176.131 10.0725 171.757V69.4076C10.0725 65.0337 13.5966 61.4846 17.9705 61.4846H181.955C186.328 61.4846 189.878 65.0088 189.878 69.3827V171.732C189.853 176.106 186.328 179.655 181.955 179.655V179.655Z" fill="#FFCA28"/>
<path d="M74.1315 94.2015H30.6173C28.4429 94.2015 26.6683 92.4269 26.6683 90.2274C26.6683 88.053 28.4429 86.2784 30.6173 86.2784H74.1565C76.3309 86.2784 78.1055 88.053 78.1305 90.2274C78.1055 92.4269 76.3309 94.2015 74.1315 94.2015C74.1565 94.2015 74.1315 94.2015 74.1315 94.2015V94.2015ZM74.1315 121.095H30.6173C28.4429 121.095 26.6683 119.32 26.6683 117.121C26.6683 114.946 28.4429 113.172 30.6173 113.172H74.1565C76.3309 113.172 78.1055 114.946 78.1305 117.121C78.1055 119.32 76.3309 121.095 74.1315 121.095C74.1565 121.095 74.1315 121.095 74.1315 121.095V121.095Z" fill="white"/>
<path d="M165.034 150.137L143.639 136.016C142.989 135.566 142.114 135.566 141.465 136.016L120.07 150.162C119.145 150.762 117.921 150.512 117.321 149.613C117.096 149.288 116.996 148.913 116.996 148.513V61.2097C116.996 59.0352 118.695 57.2607 120.77 57.2607H164.309C166.383 57.2607 168.083 59.0352 168.083 61.2097V148.488C168.108 149.563 167.233 150.462 166.133 150.487C165.759 150.487 165.359 150.362 165.034 150.137V150.137Z" fill="#F44336"/>
</svg>
