<svg width="200" height="200" viewBox="0 0 200 200" fill="none" xmlns="http://www.w3.org/2000/svg">
<path d="M99 13L174 55.5L100.5 103.5L24.5 58L99 13Z" fill="#8382FC"/>
<path d="M94.5 99.9079L174 63L176.5 141L97.5 189.5L20 144.908V63L94.5 99.9079Z" fill="#8382FC"/>
<path d="M94.5 99.9079L174 63L176.5 141L97.5 189.5L99 184.5V107.5L94.5 99.9079Z" fill="#504FC7"/>
<path d="M82.3 95C82.3 95 105.2 99.8 116.5 93.3C116.5 93.3 99 107 99 125.8C99.1 125.7 97.4 102.1 82.3 95ZM85.7 190.3C85.7 190.3 99.1 191.6 99.1 174.5C99.1 174.5 99.7 191.8 111.8 189.8C111.8 189.9 101.9 194.1 85.7 190.3V190.3ZM31.5 47.5C31.5 47.5 25.6 60.3 33.7 65.4C33.7 65.4 20.6 62 17.8 72.7C17.8 72.7 19.5 56.5 31.5 47.5V47.5ZM167.5 45.4C167.5 45.4 177.1 55.2 167.7 61.3C167.7 61.3 179.2 57.7 180.7 68.4C180.7 68.4 181.7 54.8 167.5 45.4V45.4Z" fill="#3C3BBE"/>
<path d="M86.6 190.6C85.5 190.6 84.5 190.4 83.6 190L30.7 159.3L30.4 159.1C30.4 159.1 30.2 158.9 29.5 158.6C19.5 152.9 17.2 140.2 16.7 135V76.5C16.7 75.9 16.8 75.1 16.9 74.3L17 73.6L17.2 73.1C21 63.2 32.2 63.1 37.5 64.5L37.2 65.6L38 64.4L93 96L96.7 103.4C100.8 110.6 102.4 118.6 103.1 122.9V173.3C102.2 184.3 95.9 188.2 92.2 189.5C92 189.6 89.2 190.6 86.6 190.6V190.6ZM35.4 152.3L86.8 182.1C89.2 182 94 180.8 94.7 172.7V123.8C93.8 117.6 90.6 103.5 80.6 98.8L63 88L63.3 88.6L35.5 72.5C35.1 72.4 27.6 70.7 25.2 75.6C25.1 76.1 25.1 76.5 25.1 76.8V134.3C25.4 137.6 27 147.4 33.6 151.2C34.3 151.6 34.9 152 35.4 152.3V152.3Z" fill="#3C3BBE"/>
<path d="M163.6 42.6C164.9 43.4 166.1 44 167.2 44.7L167.5 44.9L167.8 45.2C168.8 46 169.9 47 171 48.2C172.2 50.5 172.1 54.7 171.9 57.8C171.7 60.2 170.6 63.7 166.7 66.5L166.5 66.6L118.1 97.2C112.9 100 105.8 100.8 99.3 100.8C91.3 100.8 84.1 99.5 81.9 99.1L81.3 99L33.4 71.2C25.7 65.4 27.9 54.5 30.4 49L30.9 47.8L82.4 15.2C88.1 12.4 102.8 6.8 116.2 15C116.9 15.5 127.6 21.7 139.5 28.6M84.3 91C92.2 92.4 106.6 93.7 114.1 89.8L161.9 59.5C163.3 58.4 163.5 57.5 163.6 57C163.8 54.8 161.7 51.8 160.6 50.6C149.7 44.3 113 23 111.7 22.2C102 16.2 90.8 20.4 86.3 22.7L37.6 53.5C36.8 55.9 35.2 61.8 38.3 64.4L84.3 91Z" fill="#3C3BBE"/>
<path d="M162.4 59.4C163.2 59.2 169.9 57.2 175.3 60.6C176.7 61.5 178.8 62.9 180 65.4C180.2 66.5 180.8 67.5 180.9 68.7V69.1L180.7 132.2C179.7 139.1 176.3 150.1 165.6 156.7L164.6 157.4H164.4L113.2 189.8L112.3 189.9C111.5 190 110.6 190.1 109.8 190.1C106.7 190.1 103.9 189.1 101.6 187.2C96.8 183.2 95.2 176.3 94.7 172.8L94.5 123.4H94.8C96 104.5 112.1 91.2 113.7 90L113.6 89.9L162 59.5M103.2 170.4C103.3 172.4 104.2 178.5 107.1 180.9C107.7 181.4 108.6 182 110.3 181.9L162 149.1C173 141.6 172.5 126.5 172.5 126.4L172.4 120.1L172.6 71.2H172.5C172.2 68.7 171.1 68 170.8 67.8C169.1 66.7 166.2 67.2 165.2 67.4L119.2 96.5C119 96.6 103.4 109.2 103.4 125.7H103.1L103.2 170.4V170.4Z" fill="#3C3BBE"/>
<path d="M85 52.6C85 58 91.2 62.4 98.9 62.4C106.6 62.4 112.8 58 112.8 52.6C112.8 47.2 106.6 42.8 98.9 42.8C91.2 42.8 85 47.2 85 52.6ZM129.6 153.9C129.6 159.9 125.2 167 119.9 169.6C114.5 172.3 110.1 169.5 110.1 163.5C110.1 157.5 114.5 150.4 119.9 147.8C125.2 145.1 129.6 147.8 129.6 153.9ZM148.5 118.7C148.5 124.7 144.1 131.8 138.8 134.4C133.4 137.1 129.1 134.3 129.1 128.3C129.1 122.3 133.5 115.2 138.8 112.6C144.1 109.9 148.5 112.7 148.5 118.7ZM169.5 84.6C169.5 90.6 165.1 97.7 159.8 100.3C154.4 103 150 100.2 150 94.2C150 88.2 154.4 81.1 159.8 78.5C165.1 75.8 169.5 78.5 169.5 84.6V84.6ZM52.9 106.1C52.9 112.1 48.6 114.3 43.4 110.9C38.1 107.6 33.9 100 33.9 94C33.9 88 38.2 85.8 43.4 89.2C48.6 92.5 52.9 100.1 52.9 106.1ZM84.4 161.8C84.4 167.8 80.1 170 74.9 166.6C69.7 163.2 65.4 155.7 65.4 149.7C65.4 143.7 69.7 141.5 74.9 144.9C80.1 148.2 84.4 155.8 84.4 161.8Z" fill="#F59D0D"/>
</svg>
