<svg width="200" height="200" viewBox="0 0 200 200" fill="none" xmlns="http://www.w3.org/2000/svg">
<path d="M106.953 120.781C108.926 122.188 110.938 123.418 113.047 124.473C115.313 125.625 117.637 126.582 120 127.324C138.457 133.223 159.414 127.207 171.758 110.859C183.105 95.8008 184.023 76.1133 175.723 60.5078C175.703 60.4883 175.703 60.4687 175.684 60.4492C174.824 58.8086 173.848 57.2266 172.773 55.7031C172.715 55.625 172.656 55.5273 172.598 55.4492C167.5 47.7539 161.016 40.7812 153.223 34.9023C116.211 6.99219 63.6133 14.3555 35.7031 51.3477C7.8125 88.3398 15.1758 140.957 52.168 168.867C59.082 174.082 66.5625 178.086 74.3164 180.859C74.3945 180.879 74.4531 180.918 74.5313 180.938C74.668 180.996 74.8047 181.035 74.9414 181.074C75 181.094 75.0586 181.113 75.1367 181.133C82.0898 183.438 90.0586 181.211 94.707 175.02C99.0039 169.316 99.3164 161.855 96.0938 155.977C95.1172 154.18 93.8086 152.539 92.168 151.133C91.875 150.879 91.5625 150.625 91.25 150.391C90.8984 150.137 90.5469 149.883 90.1758 149.648C83.4961 143.848 82.3633 133.789 87.7734 126.602C92.3438 120.566 100.156 118.418 106.953 120.781V120.781ZM51.6797 121.992C44.2188 116.367 42.7148 105.742 48.3594 98.2813C53.9844 90.8203 64.6094 89.3164 72.0703 94.9609C79.5313 100.586 81.0352 111.211 75.3906 118.672C69.7656 126.133 59.1406 127.617 51.6797 121.992Z" fill="#FDF17F"/>
<path d="M59.9219 159.531C59.9219 161.029 60.2169 162.512 60.7901 163.896C61.3633 165.28 62.2035 166.538 63.2627 167.597C64.3219 168.656 65.5793 169.496 66.9631 170.069C68.347 170.642 69.8302 170.937 71.3281 170.937C72.826 170.937 74.3092 170.642 75.6931 170.069C77.077 169.496 78.3344 168.656 79.3936 167.597C80.4527 166.538 81.2929 165.28 81.8661 163.896C82.4393 162.512 82.7344 161.029 82.7344 159.531C82.7344 158.033 82.4393 156.55 81.8661 155.166C81.2929 153.782 80.4527 152.525 79.3936 151.466C78.3344 150.407 77.077 149.566 75.6931 148.993C74.3092 148.42 72.826 148.125 71.3281 148.125C69.8302 148.125 68.347 148.42 66.9631 148.993C65.5793 149.566 64.3219 150.407 63.2627 151.466C62.2035 152.525 61.3633 153.782 60.7901 155.166C60.2169 156.55 59.9219 158.033 59.9219 159.531V159.531Z" fill="#FF4E67"/>
<path d="M59.9219 55.5469C59.9219 57.0448 60.2169 58.528 60.7901 59.9119C61.3633 61.2957 62.2035 62.5531 63.2627 63.6123C64.3219 64.6715 65.5793 65.5117 66.9631 66.0849C68.347 66.6581 69.8302 66.9531 71.3281 66.9531C72.826 66.9531 74.3092 66.6581 75.6931 66.0849C77.077 65.5117 78.3344 64.6715 79.3936 63.6123C80.4527 62.5531 81.2929 61.2957 81.8661 59.9119C82.4393 58.528 82.7344 57.0448 82.7344 55.5469C82.7344 54.049 82.4393 52.5658 81.8661 51.1819C81.2929 49.798 80.4527 48.5406 79.3936 47.4814C78.3344 46.4223 77.077 45.5821 75.6931 45.0089C74.3092 44.4357 72.826 44.1406 71.3281 44.1406C69.8302 44.1406 68.347 44.4357 66.9631 45.0089C65.5793 45.5821 64.3219 46.4223 63.2627 47.4814C62.2035 48.5406 61.3633 49.798 60.7901 51.1819C60.2169 52.5658 59.9219 54.049 59.9219 55.5469V55.5469Z" fill="#50E6CC"/>
<path d="M103.906 44.1406C103.906 47.1657 105.108 50.067 107.247 52.2061C109.386 54.3451 112.287 55.5469 115.313 55.5469C118.338 55.5469 121.239 54.3451 123.378 52.2061C125.517 50.067 126.719 47.1657 126.719 44.1406C126.719 41.1155 125.517 38.2143 123.378 36.0752C121.239 33.9361 118.338 32.7344 115.313 32.7344C112.287 32.7344 109.386 33.9361 107.247 36.0752C105.108 38.2143 103.906 41.1155 103.906 44.1406Z" fill="#46CDFB"/>
<path d="M138.359 68.5547C138.359 71.5798 139.561 74.481 141.7 76.6201C143.839 78.7592 146.74 79.9609 149.766 79.9609C152.791 79.9609 155.692 78.7592 157.831 76.6201C159.97 74.481 161.172 71.5798 161.172 68.5547C161.172 65.5296 159.97 62.6283 157.831 60.4892C155.692 58.3502 152.791 57.1484 149.766 57.1484C146.74 57.1484 143.839 58.3502 141.7 60.4892C139.561 62.6283 138.359 65.5296 138.359 68.5547V68.5547Z" fill="#BD9EE2"/>
<path d="M121.777 101.953C121.777 104.978 122.979 107.879 125.118 110.019C127.257 112.158 130.158 113.359 133.184 113.359C136.209 113.359 139.11 112.158 141.249 110.019C143.388 107.879 144.59 104.978 144.59 101.953C144.59 98.928 143.388 96.0268 141.249 93.8877C139.11 91.7486 136.209 90.5469 133.184 90.5469C130.158 90.5469 127.257 91.7486 125.118 93.8877C122.979 96.0268 121.777 98.928 121.777 101.953Z" fill="#EB866B"/>
<path d="M175.703 60.5078C175.684 60.4883 175.684 60.4688 175.664 60.4492C174.805 58.8086 173.828 57.2266 172.754 55.7031C172.695 55.625 172.637 55.5273 172.578 55.4492C167.48 47.7539 160.996 40.7812 153.203 34.9023C136.191 22.0703 115.898 16.6992 96.1914 18.2422C111.602 19.4336 126.875 24.9023 140.137 34.9023C147.93 40.7812 154.414 47.7539 159.512 55.4492C159.57 55.5273 159.629 55.625 159.687 55.7031C160.762 57.2266 161.738 58.8086 162.598 60.4492C162.617 60.4688 162.617 60.4883 162.637 60.5078C170.937 76.1328 170.02 95.8008 158.672 110.859C150.859 121.211 139.59 127.422 127.695 129.082C144.023 131.367 161.094 124.961 171.738 110.859C183.105 95.8008 184.023 76.1133 175.703 60.5078ZM96.0937 155.996C95.1172 154.199 93.8086 152.559 92.168 151.152C91.875 150.898 91.5625 150.645 91.25 150.41C90.8984 150.137 90.5469 149.902 90.1758 149.648C83.4961 143.848 82.3633 133.789 87.7734 126.602C89.5898 124.18 91.9531 122.383 94.5508 121.25C94.3164 121.094 94.1016 120.938 93.8672 120.781C87.0703 118.418 79.2578 120.566 74.707 126.602C69.2969 133.77 70.4297 143.848 77.1094 149.648C77.4805 149.883 77.832 150.137 78.1836 150.41C78.4961 150.645 78.8086 150.898 79.1211 151.152C80.7422 152.559 82.0508 154.199 83.0469 155.996C86.25 161.875 85.957 169.336 81.6602 175.039C79.6484 177.715 77.0312 179.629 74.1406 180.781C74.1992 180.801 74.2773 180.82 74.3359 180.859C74.4141 180.879 74.4727 180.918 74.5508 180.938C74.6875 180.996 74.8242 181.035 74.9609 181.094C75.0195 181.113 75.0781 181.133 75.1562 181.152C82.1094 183.457 90.0781 181.23 94.7266 175.039C99.0039 169.336 99.3164 161.875 96.0937 155.996V155.996Z" fill="#E7AF16"/>
<path d="M82.7344 159.531C82.7344 165.82 77.6367 170.937 71.3281 170.937C69.9609 170.937 68.6328 170.703 67.4219 170.254C71.7969 168.652 74.9219 164.453 74.9219 159.531C74.9219 154.609 71.7969 150.41 67.4219 148.809C68.6328 148.359 69.9609 148.125 71.3281 148.125C77.6367 148.125 82.7344 153.223 82.7344 159.531Z" fill="#EB2247"/>
<path d="M82.7148 55.5469C82.7148 61.8359 77.6172 66.9531 71.3086 66.9531C69.9414 66.9531 68.6133 66.7187 67.4023 66.2695C71.7773 64.668 74.9023 60.4687 74.9023 55.5469C74.9023 50.625 71.7773 46.4258 67.4023 44.8242C68.6133 44.375 69.9414 44.1406 71.3086 44.1406C77.6172 44.1406 82.7148 49.2578 82.7148 55.5469Z" fill="#18C5A3"/>
<path d="M126.719 44.1406C126.719 50.4297 121.621 55.5469 115.313 55.5469C113.945 55.5469 112.617 55.3125 111.406 54.8633C115.781 53.2617 118.906 49.082 118.906 44.1406C118.906 39.2187 115.781 35.0195 111.406 33.418C112.617 32.9688 113.945 32.7344 115.313 32.7344C121.602 32.7539 126.719 37.8516 126.719 44.1406V44.1406Z" fill="#0891CE"/>
<path d="M161.172 68.5547C161.172 74.8437 156.074 79.9609 149.766 79.9609C148.398 79.9609 147.07 79.7266 145.859 79.2773C150.234 77.6758 153.359 73.4766 153.359 68.5547C153.359 63.6328 150.234 59.4336 145.859 57.832C147.07 57.3828 148.398 57.1484 149.766 57.1484C156.055 57.1484 161.172 62.2461 161.172 68.5547Z" fill="#7E72C9"/>
<path d="M144.57 101.953C144.57 108.242 139.473 113.359 133.164 113.359C131.797 113.359 130.469 113.125 129.258 112.676C133.633 111.074 136.758 106.895 136.758 101.953C136.758 97.0117 133.633 92.832 129.258 91.2305C130.469 90.7813 131.797 90.5469 133.164 90.5469C139.473 90.5469 144.57 95.6641 144.57 101.953Z" fill="#A94329"/>
</svg>
