<svg width="200" height="200" viewBox="0 0 200 200" fill="none" xmlns="http://www.w3.org/2000/svg">
<path d="M69.2687 108.35H51.0696V69.9486C51.0696 66.5557 52.3035 63.4712 54.3085 61.0037L63.8706 49.2827C65.7214 46.9694 68.6517 45.4272 71.8905 45.4272H147C146.537 44.8103 146.229 44.0392 145.612 43.5765L135.896 31.8556C133.891 29.5422 130.96 28 127.721 28H43.9751C40.7363 28 37.806 29.5422 35.9552 31.8556L26.2388 43.5765C24.2338 46.0441 23 49.1285 23 52.5214V139.966C23 147.677 29.3234 154 37.0348 154H51.0696V112.051L66.1841 114.827L69.2687 108.35ZM43.5124 34.94H127.413L133.891 41.88H37.806L43.5124 34.94Z" fill="#FFCB99"/>
<path d="M66 59.1307H149.035V52H71.7106L66 59.1307ZM108.907 96.0243L100.109 86.8784L91.0032 96.0243L66 133.383L100.109 154H128.045V129.353L157.37 133.383L162 124.082L114.154 90.7538L108.907 96.0243Z" fill="#FFCB99"/>
<path d="M128 154H134.949C142.669 154 149 147.553 149 139.692V129H128V154V154Z" fill="#FF7E00"/>
<path d="M173.761 60.5765L164.045 48.8556C162.04 46.5422 159.11 45 155.871 45H71.9743C68.7356 45 65.8054 46.5422 63.9547 48.8556L54.2387 60.5765C52.2338 63.0441 51 66.1285 51 69.5214V156.966C51 164.677 57.3231 171 65.0343 171H162.966C170.677 171 177 164.677 177 156.966V69.5214C177 66.1285 175.766 63.0441 173.761 60.5765V60.5765ZM148.931 128.897V139.384C148.931 147.095 142.608 153.419 134.897 153.419H100.043V129.051H75.5214L108.679 95.8935L113.923 90.6499L148.931 125.659L152.479 129.206H148.931V128.897ZM148.931 59.0343H65.9596L71.6659 51.94H155.563L162.04 58.88H148.931V59.0343Z" fill="#FF7E00"/>
</svg>
