<svg width="24" height="16" viewBox="0 0 24 16" fill="none" xmlns="http://www.w3.org/2000/svg">
<rect width="24" height="16" rx="8" fill="#FE406D"/>
<path d="M12.4822 2.54312V5.32656C12.4822 5.65989 12.3155 5.82656 11.9822 5.82656C11.6488 5.82656 11.4822 5.65989 11.4822 5.32656V2.54312C11.4822 2.20979 11.6488 2.04312 11.9822 2.04312C12.3155 2.04312 12.4822 2.20979 12.4822 2.54312Z" fill="white"/>
<path d="M12.3358 2.85523L10.975 4.21607C10.7392 4.45178 10.5035 4.45178 10.2678 4.21607C10.0321 3.98037 10.0321 3.74467 10.2678 3.50897L11.6287 2.14812C11.8644 1.91242 12.1001 1.91242 12.3358 2.14812C12.5715 2.38382 12.5715 2.61952 12.3358 2.85523Z" fill="white"/>
<path d="M13.0251 4.21611L11.6643 2.85526C11.4286 2.61956 11.4286 2.38385 11.6643 2.14815C11.9 1.91245 12.1357 1.91245 12.3714 2.14815L13.7322 3.509C13.9679 3.7447 13.9679 3.98041 13.7322 4.21611C13.4965 4.45181 13.2608 4.45181 13.0251 4.21611Z" fill="white"/>
<path d="M11.5178 13.4583V10.6748C11.5178 10.3415 11.6845 10.1748 12.0178 10.1748C12.3512 10.1748 12.5178 10.3415 12.5178 10.6748V13.4583C12.5178 13.7916 12.3512 13.9583 12.0178 13.9583C11.6845 13.9583 11.5178 13.7916 11.5178 13.4583Z" fill="white"/>
<path d="M11.6644 13.1461L13.0252 11.7852C13.2609 11.5495 13.4966 11.5495 13.7323 11.7852C13.968 12.0209 13.968 12.2566 13.7323 12.4923L12.3715 13.8532C12.1358 14.0889 11.9001 14.0889 11.6644 13.8532C11.4287 13.6175 11.4287 13.3818 11.6644 13.1461Z" fill="white"/>
<path d="M10.9748 11.7852L12.3356 13.146C12.5713 13.3817 12.5713 13.6174 12.3356 13.8531C12.0999 14.0888 11.8642 14.0888 11.6285 13.8531L10.2677 12.4923C10.032 12.2566 10.032 12.0209 10.2677 11.7852C10.5034 11.5495 10.7391 11.5495 10.9748 11.7852Z" fill="white"/>
<path d="M6.54236 7.51843H9.3258C9.65913 7.51843 9.8258 7.6851 9.8258 8.01843C9.8258 8.35177 9.65913 8.51843 9.3258 8.51843H6.54236C6.20903 8.51843 6.04236 8.35177 6.04236 8.01843C6.04236 7.6851 6.20903 7.51843 6.54236 7.51843Z" fill="white"/>
<path d="M6.85459 7.66512L8.21543 9.02597C8.45113 9.26167 8.45113 9.49737 8.21543 9.73307C7.97973 9.96878 7.74403 9.96878 7.50833 9.73307L6.14748 8.37223C5.91178 8.13652 5.91178 7.90082 6.14748 7.66512C6.38318 7.42942 6.61888 7.42942 6.85459 7.66512Z" fill="white"/>
<path d="M8.21549 6.97565L6.85465 8.3365C6.61894 8.5722 6.38324 8.5722 6.14754 8.3365C5.91184 8.1008 5.91184 7.86509 6.14754 7.62939L7.50839 6.26854C7.74409 6.03284 7.97979 6.03284 8.21549 6.26854C8.4512 6.50425 8.4512 6.73995 8.21549 6.97565Z" fill="white"/>
<path d="M17.4576 8.48282H14.6742C14.3409 8.48282 14.1742 8.31615 14.1742 7.98282C14.1742 7.64948 14.3409 7.48282 14.6742 7.48282H17.4576C17.791 7.48282 17.9576 7.64948 17.9576 7.98282C17.9576 8.31615 17.791 8.48282 17.4576 8.48282Z" fill="white"/>
<path d="M17.1453 8.33641L15.7844 6.97556C15.5487 6.73986 15.5487 6.50415 15.7844 6.26845C16.0201 6.03275 16.2558 6.03275 16.4915 6.26845L17.8524 7.6293C18.0881 7.865 18.0881 8.1007 17.8524 8.33641C17.6167 8.57211 17.381 8.57211 17.1453 8.33641Z" fill="white"/>
<path d="M15.7845 9.02585L17.1454 7.665C17.3811 7.42929 17.6168 7.42929 17.8525 7.665C18.0882 7.9007 18.0882 8.1364 17.8525 8.3721L16.4916 9.73295C16.2559 9.96865 16.0202 9.96865 15.7845 9.73295C15.5488 9.49725 15.5488 9.26155 15.7845 9.02585Z" fill="white"/>
<path d="M10.9817 8.01141C10.9817 8.14273 11.0076 8.27277 11.0578 8.39409C11.1081 8.51542 11.1817 8.62566 11.2746 8.71852C11.3674 8.81137 11.4777 8.88503 11.599 8.93529C11.7203 8.98554 11.8504 9.01141 11.9817 9.01141C12.113 9.01141 12.2431 8.98554 12.3644 8.93529C12.4857 8.88503 12.5959 8.81137 12.6888 8.71852C12.7817 8.62566 12.8553 8.51542 12.9056 8.39409C12.9558 8.27277 12.9817 8.14273 12.9817 8.01141C12.9817 7.74619 12.8763 7.49184 12.6888 7.30431C12.5013 7.11677 12.2469 7.01141 11.9817 7.01141C11.7165 7.01141 11.4621 7.11677 11.2746 7.30431C11.087 7.49184 10.9817 7.74619 10.9817 8.01141Z" fill="white"/>
</svg>
