<svg width="76" height="32" viewBox="0 0 76 32" fill="none" xmlns="http://www.w3.org/2000/svg">
<rect width="76" height="32" rx="4" fill="#3D8AFF"/>
<path d="M27.514 15.764H24.644V16.73H26.478V19.852H27.514V15.764ZM27.514 19.292H26.576C25.89 19.894 25.092 20.51 24.462 20.958L25.008 22.008C25.722 21.392 26.408 20.79 27.052 20.188C27.962 21.294 29.236 21.784 31.07 21.868C32.638 21.91 35.592 21.882 37.146 21.826C37.202 21.504 37.356 21.014 37.496 20.776C35.816 20.888 32.61 20.916 31.07 20.874C29.418 20.804 28.186 20.314 27.514 19.292ZM25.246 10.066C26.1 10.542 27.08 11.27 27.542 11.816L28.27 11.102C27.794 10.556 26.786 9.856 25.946 9.422L25.246 10.066ZM24.7 12.922C25.596 13.356 26.632 14.07 27.122 14.602L27.85 13.86C27.332 13.314 26.268 12.642 25.4 12.236L24.7 12.922ZM29.376 10.052V11.046H36.418V10.052H29.376ZM28.466 13.328V14.322H37.44V13.328H28.466ZM31.392 13.832C31.028 15.218 30.3 17.192 29.698 18.396L30.552 18.704C31.196 17.542 31.966 15.666 32.54 14.168L31.392 13.832ZM28.564 18.242L28.732 19.292C30.65 19.124 33.492 18.872 36.18 18.606V17.654C33.366 17.892 30.398 18.13 28.564 18.242ZM33.856 15.568C34.934 16.87 36.04 18.634 36.46 19.782L37.37 19.278C36.936 18.13 35.774 16.408 34.696 15.148L33.856 15.568ZM44.09 10.094V11.102H50.964V10.094H44.09ZM48.178 14.266V20.762C48.178 21 48.094 21.056 47.814 21.07C47.562 21.084 46.624 21.084 45.63 21.056C45.784 21.364 45.924 21.798 45.966 22.092C47.338 22.092 48.136 22.078 48.612 21.924C49.088 21.756 49.242 21.434 49.242 20.776V14.266H48.178ZM43.474 13.958V14.952H51.37V13.958H43.474ZM40.674 15.036V22.162H41.724V14.182L41.598 14.126L40.674 15.036ZM42.298 12.236C41.332 13.846 39.792 15.47 38.336 16.506C38.56 16.702 38.924 17.164 39.078 17.374C40.548 16.198 42.2 14.392 43.292 12.614L42.298 12.236ZM41.724 9.24C41.01 10.248 39.652 11.508 38.49 12.292C38.672 12.502 38.952 12.908 39.106 13.132C40.352 12.236 41.794 10.878 42.732 9.646L41.724 9.24Z" fill="white"/>
</svg>
